<svg xmlns="http://www.w3.org/2000/svg" viewBox="0 0 471.55 471.55"><defs><style>.a{fill:#fff;stroke:#fff;stroke-miterlimit:10;}.b{fill:#1e1e92;}.c{fill:#f66b9c;}.d{fill:#ffbe4d;}</style></defs><rect class="a" x="0.5" y="0.5" width="470.55" height="470.55"/><path class="b" d="M113.23,32.35l13.66,33.13,13.65,33.14L105,93.88,69.5,89.14l21.86-28.4Z" transform="translate(0.5 0.87)"/><path class="c" d="M310,268l51.55-56.74,4.88,4.43L314.84,272.4Zm8.39-29.86,51.55-56.74,4.88,4.43-51.56,56.75Z" transform="translate(0.5 0.87)"/><path class="d" d="M7.3,224.08l7.21-6.38,78.54,88.81-7.21,6.38ZM.7,185.87l7.21-6.38,78.54,88.82-7.21,6.37Zm27.14-1.63,7.21-6.38,78.55,88.81-7.2,6.38Z" transform="translate(0.5 0.87)"/><path class="d" d="M391.11,121.55a5,5,0,0,1,10,1.18h0A63.09,63.09,0,0,1,391.11,121.55Zm20.33-1.91a5,5,0,0,1,9.11.77,64.42,64.42,0,0,1-9.73,1.93,5,5,0,0,1,.62-2.7ZM361,106.19a5,5,0,1,1,5.67,4.27l-.43,0A63.45,63.45,0,0,1,361,106.19Zm22.27,3.59a5,5,0,1,1,2.43.63,5,5,0,0,1-2.43-.63Zm19.73-.1a5,5,0,1,1,2.43.63,5,5,0,0,1-2.43-.63Zm19.74-.1a5,5,0,1,1,2.42.63,5,5,0,0,1-2.42-.63Zm17.76-6.92a5,5,0,0,1,6.82-2,4.94,4.94,0,0,1,2,2.11,62.91,62.91,0,0,1-7.1,6.55A5,5,0,0,1,440.51,102.66ZM353.16,93.1a5,5,0,1,1,2.43.63A5,5,0,0,1,353.16,93.1ZM370.5,90a5,5,0,1,1,6.2,3.45,5.34,5.34,0,0,1-1.38.19A5,5,0,0,1,370.5,90Zm22.13,2.91a5,5,0,1,1,2.42.63,5,5,0,0,1-2.42-.63Zm19.73-.1a5,5,0,1,1,2.43.63,5,5,0,0,1-2.43-.63Zm19.73-.1a5,5,0,1,1,2.43.63A5,5,0,0,1,432.09,92.7Zm19.74-.1a5,5,0,1,1,7.42-3.9c-.3.59-.6,1.18-.92,1.77s-.67,1.15-1,1.72a5,5,0,0,1-5.49.41ZM344.63,77.35a5,5,0,0,1-1.88-1.84c-.25-1-.48-2-.68-3a5,5,0,1,1,2.56,4.83Zm17.88-1.13a5,5,0,1,1,2.43.63A5,5,0,0,1,362.51,76.22Zm19.74-.1a5,5,0,1,1,2.42.63,5,5,0,0,1-2.42-.63ZM402,76a5,5,0,1,1,2.43.63A5,5,0,0,1,402,76Zm19.73-.1a5,5,0,1,1,2.43.63,5,5,0,0,1-2.43-.63Zm19.73-.1a5,5,0,1,1,2.43.63,5,5,0,0,1-2.43-.63Zm19.74-.1a5,5,0,0,1,4.65-8.88,63.72,63.72,0,0,1-1.78,9.49l-.45,0a5,5,0,0,1-2.42-.63ZM354,60.46a5,5,0,1,1,2.43.63A4.92,4.92,0,0,1,354,60.46Zm17.88-1.12a5,5,0,1,1,2.43.63,5,5,0,0,1-2.43-.63Zm20.44.22a5,5,0,1,1,1.72.31,4.8,4.8,0,0,1-1.72-.31Zm19-.42a5,5,0,1,1,2.42.63,5,5,0,0,1-2.42-.63Zm19.73-.1a5,5,0,1,1,2.43.63,5,5,0,0,1-2.43-.63Zm19.73-.1a5,5,0,1,1,2.43.63,5,5,0,0,1-2.43-.63ZM341.11,53.83a5,5,0,0,1,0,4.78l-.25.41C340.84,57.29,340.94,55.56,341.11,53.83Zm2.49-10.14a4.45,4.45,0,0,1-.51-.33,62.18,62.18,0,0,1,3.29-9.07,5,5,0,1,1-2.78,9.4Zm19.73-.1a5,5,0,1,1,2.43.63,4.93,4.93,0,0,1-2.43-.64Zm17.88-1.13a5,5,0,1,1,2.43.63A5,5,0,0,1,381.21,42.46Zm19.74-.1a5,5,0,1,1,2.42.63,5,5,0,0,1-2.42-.63Zm19.73-.1a5,5,0,1,1,2.43.63,5,5,0,0,1-2.43-.63Zm19.73-.1a5,5,0,1,1,2.43.63A5,5,0,0,1,440.41,42.16Zm19.74-.1a5,5,0,0,1,0-8.78,65.38,65.38,0,0,1,3.53,9.28,5.26,5.26,0,0,1-1.12.12,5,5,0,0,1-2.42-.62ZM353,26.8a4.84,4.84,0,0,1-1.62-1.43,60.57,60.57,0,0,1,5.93-7.6,3.94,3.94,0,0,1,.55.26A5,5,0,1,1,353,26.81Zm19.73-.1a5,5,0,1,1,2.43.63,4.92,4.92,0,0,1-2.43-.63Zm17.88-1.12a5,5,0,1,1,2.43.63,5,5,0,0,1-2.43-.63Zm19.73-.1a5,5,0,1,1,2.43.63A5,5,0,0,1,410.29,25.48Zm19.74-.1a5,5,0,1,1,2.43.63,5,5,0,0,1-2.43-.63Zm19.73-.1a5,5,0,0,1-2-6.82A4.94,4.94,0,0,1,449,17a62.15,62.15,0,0,1,6.28,7.82A5,5,0,0,1,449.76,25.28ZM369.33,7.53a4.39,4.39,0,0,1-.21.44,5,5,0,0,1-4,2.57Q367.16,8.94,369.33,7.53ZM382,9.82a5,5,0,0,1-2-6.81,5.1,5.1,0,0,1,1.38-1.58c1-.36,1.92-.7,2.9-1A5,5,0,1,1,382,9.82ZM399.91,8.7a5,5,0,1,1,2.43.63A5,5,0,0,1,399.91,8.7Zm19.74-.1a5,5,0,0,1,.38-9,63,63,0,0,1,6.43,2.15,5,5,0,0,1-6.82,6.82Z" transform="translate(0.5 0.87)"/><path class="b" d="M375.33,361.51a5.58,5.58,0,0,1,2.39-3.87A41,41,0,0,1,424,425.3a5.59,5.59,0,0,1-6.37-9.18l.07,0A29.81,29.81,0,0,0,384,366.86a5.58,5.58,0,0,1-7.76-1.46h0A5.59,5.59,0,0,1,375.33,361.51Z" transform="translate(0.5 0.87)"/><path class="b" d="M181.46,422.54a4.76,4.76,0,0,1-3.05-2.44A35.2,35.2,0,1,1,241,387.76a4.8,4.8,0,0,1-8.4,4.65l-.12-.25a25.61,25.61,0,0,0-45.5,23.54,4.79,4.79,0,0,1-5.47,6.84Z" transform="translate(0.5 0.87)"/></svg>