<svg xmlns="http://www.w3.org/2000/svg" width="27.778" height="24" viewBox="0 0 27.778 24">
  <g id="icon_like_on" transform="translate(-901.161 -432.188)">
    <path id="パス_273" data-name="パス 273" d="M921.357,442.743c-2.591-2.523-7.17-2.761-9.761-.238s-2.766,7.545.6,11.631c2.737,3.32,7.743,6.773,9.428,7.85a1.042,1.042,0,0,0,1.117,0,52.779,52.779,0,0,0,9.675-7.968c3.385-3.916,3.2-9.1.619-11.629s-7.156-2.3-9.753.216l-.969,1.069Z" transform="translate(-7.265 -7.193)" fill="#db588d"/>
    <path id="パス_274" data-name="パス 274" d="M913.785,436.294c-2.591-2.523-4.55-.961-7.141,1.562s-2.766,7.545.6,11.631a27.477,27.477,0,0,0,6.809,6.05,1.042,1.042,0,0,0,1.117,0,52.781,52.781,0,0,0,9.675-7.968c3.385-3.916,3.2-9.1.619-11.629s-3.454-.6-6.051,1.922l-3.716-.507Z" transform="translate(-3.031 -2.196)" fill="#f66b9c"/>
    <path id="パス_275" data-name="パス 275" d="M914.921,456.188a2.273,2.273,0,0,1-1.225-.357c-.656-.42-6.508-4.213-9.715-8.1a11.876,11.876,0,0,1-2.817-7.155,8.241,8.241,0,0,1,2.307-6.145c2.993-2.913,8.358-2.8,11.482.238h0l.041.04.166-.179c3.128-3.032,8.489-3.131,11.474-.212,3.276,3.2,3.03,9.178-.548,13.318a53.483,53.483,0,0,1-9.947,8.2A2.269,2.269,0,0,1,914.921,456.188Zm-5.949-21.413a5.4,5.4,0,0,0-3.781,1.42c-2.051,2-2.352,6.268.693,9.962a44.982,44.982,0,0,0,9.037,7.528,51.484,51.484,0,0,0,9.3-7.666c2.4-2.778,3.251-7.435.689-9.94a6.03,6.03,0,0,0-8,.193l-1.8,1.985-1.874-1.824A6.141,6.141,0,0,0,908.972,434.775Z" transform="translate(0)" fill="#1e1e92"/>
    <path id="パス_276" data-name="パス 276" d="M928.848,475.5a1.088,1.088,0,0,1-.925-.513,4.668,4.668,0,0,1,.257-5.377,1.089,1.089,0,0,1,1.659,1.41,2.517,2.517,0,0,0-.067,2.816,1.089,1.089,0,0,1-.923,1.664Z" transform="translate(-22.256 -31.667)" fill="#fff"/>
    <rect id="長方形_62" data-name="長方形 62" width="2.035" height="2.035" rx="1.017" transform="matrix(0.996, 0.086, -0.086, 0.996, 908.095, 435.6)" fill="#fff"/>
  </g>
</svg>
