<svg xmlns="http://www.w3.org/2000/svg" width="24" height="17.933" viewBox="0 0 24 17.933">
  <g id="download" transform="translate(0)">
    <path id="パス_397" data-name="パス 397" d="M23.04,41.21H20.88a2.16,2.16,0,0,0-2.16,2.16v5.556a1.44,1.44,0,0,1-1.44,1.44H6.72a1.44,1.44,0,0,1-1.44-1.44V43.37a2.16,2.16,0,0,0-2.16-2.16H.96a.96.96,0,0,0,0,1.92H3.12a.24.24,0,0,1,.24.24v5.556a3.36,3.36,0,0,0,3.36,3.36H17.28a3.36,3.36,0,0,0,3.36-3.36V43.37a.24.24,0,0,1,.24-.24h2.16a.96.96,0,1,0,0-1.92Z" transform="translate(0 -34.353)" fill="#1e1e92"/>
    <path id="パス_398" data-name="パス 398" d="M34.026,12.64a.96.96,0,0,0-.96.96V24.225L30.52,21.863a.96.96,0,0,0-1.294,1.406l4.147,3.857c.019.017.038.029.058.043s.048.041.074.058a.937.937,0,0,0,.086.048l.074.036a.945.945,0,0,0,.106.034l.07.019a.922.922,0,0,0,.367,0l.07-.019a.943.943,0,0,0,.106-.034c.026,0,.05-.024.074-.036a.941.941,0,0,0,.086-.048.876.876,0,0,0,.074-.058.717.717,0,0,0,.058-.043l4.15-3.857a.96.96,0,0,0-1.306-1.409l-2.534,2.364V13.6A.96.96,0,0,0,34.026,12.64Z" transform="translate(-22.026 -12.64)" fill="#1e1e92"/>
  </g>
</svg>
