<svg xmlns="http://www.w3.org/2000/svg" width="14.291" height="18.338" viewBox="0 0 14.291 18.338">
  <g id="help" transform="translate(-11.81 -1)">
    <path id="パス_394" data-name="パス 394" d="M16.655,2.41l-.8,1.94,1.551.289L18.57,3.326l1.331.75-.127,1.442-1.56,1.473-.128,2.631,1.413-.24.8-1.745,1.759-1.612L21.3,2.642,18.7,1.59Z" fill="#f66b9c"/>
    <circle id="楕円形_23" data-name="楕円形 23" cx="1" cy="1" r="1" transform="translate(17.81 11.338)" fill="#f66b9c"/>
    <path id="パス_391" data-name="パス 391" d="M38.06,4.566h0A3.7,3.7,0,0,0,34.38,1h-.022a3.682,3.682,0,0,0-3.291,2.086,1.483,1.483,0,1,0,2.676,1.282.709.709,0,0,1,.627-.4.748.748,0,0,1,.737.694.715.715,0,0,1-.479.7A2.492,2.492,0,0,0,32.9,7.706V8.758a1.482,1.482,0,1,0,2.962,0V8.05a3.688,3.688,0,0,0,2.2-3.484Zm-2.8,2.713h-.019a.623.623,0,0,0-.088.043.468.468,0,0,0-.23.414V8.763a.546.546,0,1,1-1.091,0V7.712a1.557,1.557,0,0,1,1.078-1.473,1.662,1.662,0,0,0,1.123-1.628A1.684,1.684,0,0,0,34.37,3.023a1.65,1.65,0,0,0-1.474.936.546.546,0,1,1-.982-.475,2.741,2.741,0,0,1,2.444-1.547h.019a2.745,2.745,0,0,1,.889,5.344Z" transform="translate(-15.534)" fill="#1e1e92"/>
    <path id="パス_392" data-name="パス 392" d="M42.966,53.53a1.486,1.486,0,1,0,1.486,1.486A1.486,1.486,0,0,0,42.966,53.53Zm0,2.036a.55.55,0,1,1,.552-.55.55.55,0,0,1-.552.55Z" transform="translate(-24.118 -42.701)" fill="#1e1e92"/>
    <path id="パス_393" data-name="パス 393" d="M11.81,32.1v5.48a2.234,2.234,0,0,0,2.232,2.228h5.073l2.857,2.857a.468.468,0,0,0,.8-.331V39.811h1.1a2.234,2.234,0,0,0,2.23-2.228V32.1a2.234,2.234,0,0,0-2.232-2.232h-.3a.468.468,0,0,0,0,.936h.3a1.3,1.3,0,0,1,1.3,1.3v5.48a1.3,1.3,0,0,1-1.3,1.293H22.3a.468.468,0,0,0-.468.468v1.871l-2.2-2.2a.468.468,0,0,0-.331-.14H14.042a1.3,1.3,0,0,1-1.3-1.3V32.1a1.3,1.3,0,0,1,1.3-1.3H16a.468.468,0,0,0,0-.936H14.042A2.234,2.234,0,0,0,11.81,32.1Z" transform="translate(0 -23.468)" fill="#1e1e92"/>
  </g>
</svg>
