<svg xmlns="http://www.w3.org/2000/svg" width="28" height="24.539" viewBox="0 0 28 24.539">
  <g id="icon_home_on" transform="translate(-128.669 -412.23)">
    <path id="パス_250" data-name="パス 250" d="M172.141,423.583l-8.75,8.542L165,445.2h15.729l.365-13.959Z" transform="translate(-29.939 -9.79)" fill="#f66b9c"/>
    <path id="パス_251" data-name="パス 251" d="M185.573,498.728H169.756v-1.653H183.92V486.6h1.653Z" transform="translate(-35.428 -64.127)" fill="#db588d"/>
    <path id="パス_252" data-name="パス 252" d="M211.756,527.865v7.252l4.991.17v-7.422Z" transform="translate(-71.643 -99.708)" fill="#fff"/>
    <path id="パス_253" data-name="パス 253" d="M172.245,418.9l-8.854,8.767,17.316-.32Z" transform="translate(-29.939 -5.751)" fill="#ffbe4d"/>
    <path id="パス_254" data-name="パス 254" d="M226.226,434.834c-3.112-3.035-6.675-6.431-7.148-6.748.1.068-.481-.209-.179-.322l.274-1.174c.547-.2.811.039,2.083,1.208.621.571,1.471,1.371,2.525,2.379,1.792,1.712,3.581,3.456,3.6,3.474Z" transform="translate(-77.726 -12.327)" fill="#d8983a"/>
    <path id="パス_255" data-name="パス 255" d="M143.462,412.554a1.183,1.183,0,0,0-1.626,0L129,424.765a1.183,1.183,0,0,0,1.626,1.715l2.365-2.247v9.58a2.957,2.957,0,0,0,2.957,2.957h13.364a2.957,2.957,0,0,0,2.957-2.957v-9.58l2.365,2.247a1.183,1.183,0,0,0,1.7-1.647c-.023-.023-.047-.046-.071-.067Zm.71,21.85h-3.045v-5h3.016Zm5.736-.591a.592.592,0,0,1-.591.591h-2.809v-5a2.365,2.365,0,0,0-2.365-2.365h-3.016a2.365,2.365,0,0,0-2.365,2.365v5h-2.809a.591.591,0,0,1-.591-.591V421.986l7.273-6.948,7.273,6.919Z" transform="translate(0)" fill="#1e1e92"/>
    <path id="パス_256" data-name="パス 256" d="M163.39,485.6" transform="translate(-29.938 -63.265)" fill="#1e1e92"/>
    <rect id="長方形_52" data-name="長方形 52" width="17.23" height="2.204" transform="translate(133.907 421.233)" fill="#1e1e92"/>
  </g>
</svg>
