<svg xmlns="http://www.w3.org/2000/svg" width="24.657" height="24.412" viewBox="0 0 24.657 24.412">
  <g id="icon_search_on" transform="translate(-1170.71 -426.037)">
    <rect id="長方形_58" data-name="長方形 58" width="18.401" height="18.401" rx="9.2" transform="matrix(0.993, -0.115, 0.115, 0.993, 1171.033, 428.471)" fill="#d8983a"/>
    <path id="長方形_59" data-name="長方形 59" d="M0,0H6.238A1.721,1.721,0,0,1,7.96,1.721v0A1.721,1.721,0,0,1,6.238,3.443H0a0,0,0,0,1,0,0V0A0,0,0,0,1,0,0Z" transform="translate(1188.965 441.795) rotate(45)" fill="#fff"/>
    <path id="パス_265" data-name="パス 265" d="M1182.767,450.2a9.162,9.162,0,0,0,5.928,1.335h0a9.2,9.2,0,0,0,8.084-10.2h0a9.16,9.16,0,0,0-2.542-5.357l-6.163-1.228-5.85,4.013-.948,7.27Z" transform="translate(-9.009 -7.402)" fill="#ffbe4d"/>
    <path id="パス_266" data-name="パス 266" d="M1181.207,446.862a10.334,10.334,0,1,1,1.611-.125A10.436,10.436,0,0,1,1181.207,446.862Zm.039-18.4a8.2,8.2,0,0,0-1.266.1,8.1,8.1,0,0,0,1.244,16.1,8.1,8.1,0,0,0,8-9.345,8.1,8.1,0,0,0-7.982-6.849Z" fill="#1e1e92" stroke="#1e1e92" stroke-width="0.4"/>
    <path id="パス_267" data-name="パス 267" d="M1286.234,543.9a2.806,2.806,0,0,1-2-.828l-5.192-5.192,4-4,5.192,5.192a2.826,2.826,0,0,1-2,4.824Zm-4.067-6.02,3.63,3.63a.617.617,0,0,0,.873-.873l-3.63-3.63Z" transform="translate(-94.075 -93.653)" fill="#1e1e92" stroke="#1e1e92" stroke-width="0.4"/>
    <path id="パス_268" data-name="パス 268" d="M1201.376,468.872a1.013,1.013,0,0,1-.128-.008.974.974,0,0,1-.84-1.093,5.432,5.432,0,0,1,2.672-4.07.974.974,0,0,1,.888,1.735,3.479,3.479,0,0,0-1.628,2.589A.975.975,0,0,1,1201.376,468.872Z" transform="translate(-25.649 -32.494)" fill="#fff"/>
    <rect id="長方形_60" data-name="長方形 60" width="1.821" height="1.821" rx="0.911" transform="translate(1179.099 429.865) rotate(-9.462)" fill="#fff"/>
  </g>
</svg>
