<svg xmlns="http://www.w3.org/2000/svg" width="9.535" height="13" viewBox="0 0 9.535 13">
  <g id="icon_young_leaves" transform="translate(-68.235 -0.004)">
    <path id="パス_395" data-name="パス 395" d="M73,3.052,70.185.327a1.15,1.15,0,0,0-1.95.827V8.111a1.726,1.726,0,0,0,.526,1.24L72.2,12.68a1.15,1.15,0,0,0,1.6,0l3.442-3.329a1.726,1.726,0,0,0,.526-1.24V1.154a1.15,1.15,0,0,0-1.95-.827Zm3.145,4.858a.574.574,0,0,1-.175.413L73,11.2V5.31l.564-.546L75.66,2.74a.287.287,0,0,1,.487.207Z" transform="translate(0 0)" fill="#9caab4"/>
  </g>
</svg>
