<svg xmlns="http://www.w3.org/2000/svg" width="31" height="31.789" viewBox="0 0 31 31.789">
  <g id="house" transform="translate(-7.741 -4.5)">
    <path id="パス_466" data-name="パス 466" d="M764.536-73.416,758.3-69.1v3.307l-7.727,5.614v11.85h28.075V-60.848l-7.777-4.944V-69.6Z" transform="translate(-741.295 83.629)" fill="#fff"/>
    <ellipse id="楕円形_31" data-name="楕円形 31" cx="1.5" cy="1" rx="1.5" ry="1" transform="translate(23.705 5.629)" fill="#fff"/>
    <path id="パス_465" data-name="パス 465" d="M764.536-73.416,758.3-69.1v3.307l-7.727,5.614.194,11.1h25.565V-61.6L768.892-66.2l-.323-4.024Z" transform="translate(-739.295 84.629)" fill="#f66b9c"/>
    <g id="パス_449" data-name="パス 449" transform="translate(-1.135 -30.977)" fill="#1e1e92">
      <path d="M 19.92977523803711 67.01689147949219 L 10.35463428497314 67.01689147949219 C 10.0212345123291 67.01689147949219 9.749994277954102 66.74565124511719 9.749994277954102 66.41224670410156 L 9.749994277954102 54.35463714599609 C 9.749994277954102 54.02123641967773 10.0212345123291 53.75 10.35463428497314 53.75 C 10.68803405761719 53.75 10.95927429199219 54.02123641967773 10.95927429199219 54.35463714599609 L 10.95927429199219 65.8076171875 L 19.92977523803711 65.8076171875 C 20.26317405700684 65.8076171875 20.53441429138184 66.078857421875 20.53441429138184 66.41224670410156 C 20.53441429138184 66.74565124511719 20.26317405700684 67.01689147949219 19.92977523803711 67.01689147949219 Z" stroke="none"/>
      <path d="M 19.92977523803711 66.76689147949219 C 20.12563514709473 66.76689147949219 20.28441429138184 66.60813140869141 20.28441429138184 66.41224670410156 C 20.28441429138184 66.21638488769531 20.12563514709473 66.0576171875 19.92977523803711 66.0576171875 L 10.70927429199219 66.0576171875 L 10.70927429199219 54.35463714599609 C 10.70927429199219 54.15876770019531 10.55049419403076 54 10.35463428497314 54 C 10.15877437591553 54 9.999994277954102 54.15876770019531 9.999994277954102 54.35463714599609 L 9.999994277954102 66.41224670410156 C 9.999994277954102 66.60813140869141 10.15877437591553 66.76689147949219 10.35463428497314 66.76689147949219 L 19.92977523803711 66.76689147949219 M 19.92977523803711 67.26689147949219 L 10.35463428497314 67.26689147949219 C 9.883384704589844 67.26689147949219 9.499994277954102 66.88349914550781 9.499994277954102 66.41224670410156 L 9.499994277954102 54.35463714599609 C 9.499994277954102 53.88338851928711 9.883384704589844 53.5 10.35463428497314 53.5 C 10.82588386535645 53.5 11.20927429199219 53.88338851928711 11.20927429199219 54.35463714599609 L 11.20927429199219 65.5576171875 L 19.92977523803711 65.5576171875 C 20.40102386474609 65.5576171875 20.78441429138184 65.94100952148438 20.78441429138184 66.41224670410156 C 20.78441429138184 66.88349914550781 20.40102386474609 67.26689147949219 19.92977523803711 67.26689147949219 Z" stroke="none" fill="#1e1e92"/>
    </g>
    <ellipse id="楕円形_29" data-name="楕円形 29" cx="1.5" cy="2" rx="1.5" ry="2" transform="translate(11.705 26.629)" fill="#fff"/>
    <path id="パス_467" data-name="パス 467" d="M3.5,0C5.433,0,7,2.015,7,4.5S5.433,9,3.5,9c-.783,0-2.348.124-3.147-.659C-.287,7.746,0,5.979,0,4.5,0,2.015,1.567,0,3.5,0Z" transform="translate(19.705 26.629)" fill="#fff"/>
    <ellipse id="楕円形_30" data-name="楕円形 30" cx="1.5" cy="2" rx="1.5" ry="2" transform="translate(31.705 26.629)" fill="#fff"/>
    <g id="パス_450" data-name="パス 450" transform="translate(0)" fill="#1e1e92">
      <path d="M 37.23561096191406 36.03939819335938 L 17.02143096923828 36.03939819335938 C 16.68803024291992 36.03939819335938 16.41679000854492 35.76815795898438 16.41679000854492 35.43476867675781 L 16.41679000854492 18.72249221801758 L 8.987258911132812 23.92889595031738 C 8.877941131591797 24.02184295654297 8.739542961120605 24.07282829284668 8.595610618591309 24.07282829284668 C 8.516130447387695 24.07282829284668 8.438560485839844 24.05744934082031 8.365031242370605 24.02710914611816 C 8.151150703430176 23.93882942199707 8.004720687866211 23.7325496673584 7.991961002349854 23.50155830383301 C 7.979489803314209 23.27579879760742 8.096516609191895 23.05941581726074 8.291165351867676 22.94583320617676 L 16.41679000854492 17.23620223999023 L 16.41679000854492 15.42884731292725 L 13.64722061157227 17.37562942504883 C 13.5446310043335 17.44755935668945 13.42459106445312 17.48549842834473 13.29984092712402 17.48549842834473 C 13.10256099700928 17.48549842834473 12.91722106933594 17.3891487121582 12.80404090881348 17.22775840759277 C 12.71123123168945 17.09539985656738 12.67552089691162 16.93482971191406 12.70348072052002 16.77561950683594 C 12.7314510345459 16.61640930175781 12.81974124908447 16.47760963439941 12.95209121704102 16.38480949401855 L 22.80022048950195 9.480222702026367 L 22.80022048950195 5.354639053344727 C 22.80022048950195 5.021239280700684 23.07146072387695 4.749999046325684 23.40485000610352 4.749999046325684 L 27.66047096252441 4.749999046325684 C 27.89098167419434 4.749999046325684 28.09820175170898 4.878068923950195 28.20128059387207 5.08423900604248 C 28.30436134338379 5.290409088134766 28.28248023986816 5.533029079437256 28.14418029785156 5.717429161071777 L 27.35236167907715 6.773179531097412 L 28.14418029785156 7.828938961029053 C 28.28248023986816 8.01331901550293 28.30436134338379 8.255939483642578 28.20128059387207 8.462119102478027 C 28.09820175170898 8.668289184570312 27.89098167419434 8.796359062194824 27.66047096252441 8.796359062194824 L 24.00949096679688 8.796359062194824 L 24.00949096679688 9.481792449951172 L 33.65748977661133 16.38978004455566 C 33.78918075561523 16.48429870605469 33.87602233886719 16.62418937683105 33.90225982666016 16.78386878967285 C 33.92848968505859 16.94353866577148 33.89097213745117 17.10386848449707 33.79661178588867 17.23531913757324 C 33.68310165405273 17.39345932006836 33.49901962280273 17.48787879943848 33.30419158935547 17.48787879943848 C 33.17691040039062 17.48787879943848 33.05485916137695 17.44856834411621 32.95125198364258 17.37419891357422 L 30.03828048706055 15.28546905517578 L 30.03828048706055 17.3154239654541 C 30.05773162841797 17.32527160644531 30.07666397094727 17.33617782592773 30.09499168395996 17.34811973571777 L 30.09769058227539 17.34987831115723 L 30.10033988952637 17.35170936584473 L 30.23834991455078 17.4467887878418 L 37.95789337158203 22.76493263244629 L 38.22801208496094 22.94743919372559 C 38.36125946044922 23.03869819641113 38.45100021362305 23.17638969421387 38.48069000244141 23.33513832092285 C 38.51039123535156 23.49388885498047 38.47648239135742 23.65470886230469 38.38521957397461 23.7879581451416 C 38.27244186401367 23.95263862609863 38.08584213256836 24.05096817016602 37.88607025146484 24.05096817016602 C 37.87072372436523 24.05096817016602 37.85544204711914 24.05039215087891 37.84025192260742 24.04924583435059 L 37.84025192260742 35.43476867675781 C 37.84025192260742 35.76815795898438 37.56901168823242 36.03939819335938 37.23561096191406 36.03939819335938 Z M 30.03828048706055 34.83013916015625 L 36.6309814453125 34.83013916015625 L 36.6309814453125 23.37714958190918 L 36.6309814453125 23.37397003173828 L 36.63106155395508 23.37078857421875 C 36.63147735595703 23.35445785522461 36.632568359375 23.33814239501953 36.63431930541992 23.3218994140625 L 30.03828048706055 18.77811050415039 L 30.03828048706055 34.83013916015625 Z M 26.84657096862793 34.83013916015625 L 27.66047096252441 34.83013916015625 L 28.82902145385742 34.83013916015625 L 28.82902145385742 14.41635131835938 L 23.4033088684082 10.53017902374268 L 17.62606048583984 14.58036518096924 L 17.62606048583984 34.83013916015625 L 19.25387001037598 34.83013916015625 L 19.25387001037598 28.28430366516113 C 19.24094200134277 27.68007659912109 19.47504806518555 27.08526992797852 19.89644050598145 26.65199851989746 C 20.31857109069824 26.21794891357422 20.90793037414551 25.96726989746094 21.51340103149414 25.9642391204834 L 21.51403045654297 25.9642391204834 L 21.51465034484863 25.9642391204834 L 24.58579063415527 25.9642391204834 C 25.1925106048584 25.96726989746094 25.78186988830566 26.21794891357422 26.20400047302246 26.65199851989746 C 26.62539291381836 27.08528137207031 26.85950088500977 27.68008804321289 26.84657096862793 28.28430366516113 L 26.84657096862793 34.83013916015625 Z M 23.65485000610352 34.83013916015625 L 25.63730049133301 34.83013916015625 L 25.63730049133301 28.28176879882812 L 25.63730049133301 28.27736854553223 L 25.637451171875 28.27297973632812 C 25.64748001098633 27.98806953430176 25.54010009765625 27.70660972595215 25.34286117553711 27.5007495880127 C 25.14562034606934 27.29491996765137 24.86898994445801 27.17563819885254 24.58392143249512 27.17349815368652 L 23.65485000610352 27.17350769042969 L 23.65485000610352 34.83013916015625 Z M 20.4631404876709 34.83013916015625 L 22.44558143615723 34.83013916015625 L 22.44558143615723 27.17350959777832 L 21.51531219482422 27.17350959777832 C 21.23066711425781 27.17597389221191 20.95454406738281 27.29520797729492 20.75757026672363 27.50075912475586 C 20.56033134460449 27.70659828186035 20.45296096801758 27.98805999755859 20.46299171447754 28.27297973632812 L 20.4631404876709 28.27736854553223 L 20.4631404876709 28.28176879882812 L 20.4631404876709 34.83013916015625 Z M 24.00949096679688 7.587089061737061 L 26.45120429992676 7.587089061737061 L 26.11286163330078 7.135959148406982 C 25.95266151428223 6.922358989715576 25.95266151428223 6.623999118804932 26.11286163330078 6.410398960113525 L 26.45120429992676 5.959269046783447 L 24.00949096679688 5.959269046783447 L 24.00949096679688 7.587089061737061 Z" stroke="none"/>
      <path d="M 37.23561096191406 35.78939819335938 C 37.43146896362305 35.78939819335938 37.59025192260742 35.63063049316406 37.59025192260742 35.43476867675781 L 37.59025192260742 23.675048828125 L 37.68600082397461 23.73887825012207 C 37.74726486206055 23.78084754943848 37.8170280456543 23.80097007751465 37.88607025146484 23.80097007751465 C 37.99912643432617 23.80097007751465 38.11025238037109 23.74701881408691 38.17896270751953 23.64668846130371 C 38.28963088989258 23.48509979248047 38.24835205078125 23.26437950134277 38.08675003051758 23.15370941162109 L 38.08674240112305 23.15727996826172 L 30.09652137756348 17.65265846252441 L 29.95851135253906 17.55757904052734 C 29.90756988525391 17.52438926696777 29.84895133972168 17.50484848022461 29.78828048706055 17.50083923339844 L 29.78828048706055 14.79857921600342 L 33.09703063964844 17.17109870910645 C 33.15984344482422 17.2161865234375 33.23235702514648 17.23787689208984 33.30419540405273 17.23787689208984 C 33.4149169921875 17.23787689208984 33.52402877807617 17.18634605407715 33.59352111816406 17.08952903747559 C 33.70809936523438 16.92990875244141 33.67158126831055 16.70761871337891 33.5119514465332 16.59305000305176 L 23.75949096679688 9.610269546508789 L 23.75949096679688 8.546359062194824 L 27.66047096252441 8.546359062194824 C 27.79480171203613 8.546359062194824 27.91760063171387 8.47046947479248 27.97767066955566 8.350318908691406 C 28.03774070739746 8.230169296264648 28.0247802734375 8.086399078369141 27.94418144226074 7.978939056396484 L 27.03986167907715 6.773179054260254 L 27.94418144226074 5.567419052124023 C 28.0247802734375 5.459959030151367 28.03774070739746 5.316179275512695 27.97767066955566 5.196039199829102 C 27.91760063171387 5.075889110565186 27.79480171203613 4.999999046325684 27.66047096252441 4.999999046325684 L 23.40485000610352 4.999999046325684 C 23.2089900970459 4.999999046325684 23.05022048950195 5.158779144287109 23.05022048950195 5.354639053344727 L 23.05022048950195 9.610269546508789 L 13.09562110900879 16.58949851989746 C 12.93501091003418 16.70211982727051 12.89611053466797 16.92360877990723 13.0087308883667 17.08421897888184 C 13.07783985137939 17.18277168273926 13.18796634674072 17.23550033569336 13.29984378814697 17.23550033569336 C 13.37028121948242 17.23550033569336 13.44140243530273 17.2146110534668 13.50345039367676 17.17109870910645 L 16.66679000854492 14.94752883911133 L 16.66679000854492 17.36607933044434 L 8.425081253051758 23.15727996826172 C 8.305410385131836 23.22294998168945 8.234050750732422 23.35146903991699 8.241580963134766 23.48776817321777 C 8.249111175537109 23.62405967712402 8.334210395812988 23.74392890930176 8.460391044616699 23.7960090637207 C 8.504076957702637 23.81403541564941 8.550019264221191 23.82283020019531 8.595606803894043 23.82283020019531 C 8.68170166015625 23.82283020019531 8.766575813293457 23.79148864746094 8.832910537719727 23.73178863525391 L 16.66679000854492 18.24202919006348 L 16.66679000854492 18.49160957336426 L 16.66679000854492 35.43476867675781 C 16.66679000854492 35.63063049316406 16.82557106018066 35.78939819335938 17.02143096923828 35.78939819335938 L 37.23561096191406 35.78939819335938 M 29.78828048706055 18.30231857299805 L 36.92354202270508 23.21755981445312 C 36.89699172973633 23.26666831970215 36.88240051269531 23.32134819030762 36.8809814453125 23.37714958190918 L 36.8809814453125 35.08013916015625 L 29.78828048706055 35.08013916015625 L 29.78828048706055 18.57284927368164 L 29.78828048706055 18.30231857299805 M 21.51465034484863 26.2142391204834 C 20.9723014831543 26.21694946289062 20.45379066467285 26.4374885559082 20.07566070556641 26.8262996673584 C 19.6975212097168 27.2150993347168 19.49149131774902 27.73954963684082 19.50387001037598 28.28176879882812 L 19.50387001037598 35.08013916015625 L 17.37606048583984 35.08013916015625 L 17.37606048583984 14.57515907287598 C 17.37484169006348 14.53761863708496 17.36765098571777 14.50051879882812 17.35478019714355 14.46522903442383 L 23.40485000610352 10.22377872467041 L 29.07902145385742 14.28790950775146 L 29.07902145385742 35.08013916015625 L 27.66047096252441 35.08013916015625 L 26.59657096862793 35.08013916015625 L 26.59657096862793 28.28176879882812 C 26.60895156860352 27.73954963684082 26.40291023254395 27.2150993347168 26.0247802734375 26.8262996673584 C 25.64665031433105 26.4374885559082 25.12814140319824 26.21694946289062 24.58579063415527 26.2142391204834 L 21.51465034484863 26.2142391204834 M 23.40485000610352 26.92350959777832 L 24.58579063415527 26.92350959777832 C 24.9400806427002 26.9261589050293 25.27824020385742 27.07197952270508 25.52337074279785 27.32778930664062 C 25.76849174499512 27.58360862731934 25.89976119995117 27.92767906188965 25.88730049133301 28.28176879882812 L 25.88730049133301 35.08013916015625 L 23.40485000610352 35.08013916015625 L 23.40485000610352 26.92350959777832 M 21.51465034484863 26.92350959777832 L 22.69558143615723 26.92350959777832 L 22.69558143615723 35.08013916015625 L 20.2131404876709 35.08013916015625 L 20.2131404876709 28.28176879882812 C 20.20068168640137 27.92767906188965 20.33194160461426 27.58360862731934 20.57707023620605 27.32778930664062 C 20.82220077514648 27.07197952270508 21.16036033630371 26.9261589050293 21.51465034484863 26.92350959777832 M 26.95120048522949 7.837089061737061 L 23.75949096679688 7.837089061737061 L 23.75949096679688 5.709269046783447 L 26.95120048522949 5.709269046783447 L 26.3128604888916 6.560399055480957 C 26.21829032897949 6.686489105224609 26.21829032897949 6.859869003295898 26.3128604888916 6.985959053039551 L 26.95120048522949 7.837089061737061 M 37.23561096191406 36.28939819335938 L 17.02143096923828 36.28939819335938 C 16.55018043518066 36.28939819335938 16.16679000854492 35.90600967407227 16.16679000854492 35.43476867675781 L 16.16679000854492 19.20296478271484 L 9.139359474182129 24.12758827209473 C 8.986418724060059 24.25375747680664 8.794766426086426 24.32282829284668 8.595610618591309 24.32282829284668 C 8.483241081237793 24.32282829284668 8.373570442199707 24.30108833312988 8.269650459289551 24.25819969177246 C 7.967350959777832 24.1334285736084 7.760380744934082 23.84184837341309 7.742341041564941 23.51534843444824 C 7.724923133850098 23.20011711120605 7.886140823364258 22.89782524108887 8.155295372009277 22.73575973510742 L 16.16679000854492 17.10632514953613 L 16.16679000854492 15.91014862060547 L 13.79098129272461 17.58014869689941 C 13.6458911895752 17.68190002441406 13.47622108459473 17.73549842834473 13.29984092712402 17.73549842834473 C 13.02115058898926 17.73549842834473 12.75928115844727 17.59934997558594 12.59936046600342 17.37129974365234 C 12.32862091064453 16.98518943786621 12.42247104644775 16.45083999633789 12.80856037139893 16.18011856079102 L 22.55022048950195 9.350183486938477 L 22.55022048950195 5.354639053344727 C 22.55022048950195 4.883388996124268 22.9336109161377 4.499999046325684 23.40485000610352 4.499999046325684 L 27.66047096252441 4.499999046325684 C 27.98628997802734 4.499999046325684 28.27919006347656 4.681029319763184 28.42489051818848 4.97244930267334 C 28.57059097290039 5.263849258422852 28.5396614074707 5.606789112091064 28.34417152404785 5.867429256439209 L 27.66485977172852 6.773178577423096 L 28.34418106079102 7.678938865661621 C 28.5396614074707 7.939558982849121 28.57059097290039 8.282499313354492 28.42489051818848 8.573908805847168 C 28.27919006347656 8.865328788757324 27.98628997802734 9.046359062194824 27.66047096252441 9.046359062194824 L 24.25949096679688 9.046359062194824 L 24.25949096679688 9.353316307067871 L 33.80303192138672 16.18650817871094 C 33.98920059204102 16.32012939453125 34.11189270019531 16.51776885986328 34.14895248413086 16.74333953857422 C 34.18601226806641 16.96889877319336 34.13301086425781 17.19539833068848 33.99970245361328 17.38109970092773 C 33.83937072753906 17.60448837280273 33.57936096191406 17.73787879943848 33.30419158935547 17.73787879943848 C 33.12427139282227 17.73787879943848 32.95180130004883 17.68233871459961 32.80545043945312 17.57728004455566 L 30.28828048706055 15.77235889434814 L 30.28828048706055 17.17759895324707 L 30.38018989562988 17.24091911315918 L 37.95689392089844 22.46065521240234 L 38.36927032470703 22.74117851257324 C 38.55762100219727 22.87016868591309 38.6844596862793 23.06477928161621 38.7264289855957 23.2891788482666 C 38.76840209960938 23.51356887817383 38.72048187255859 23.74087905883789 38.59148025512695 23.92921829223633 C 38.47138977050781 24.10457801818848 38.29208374023438 24.22671127319336 38.09025192260742 24.27628707885742 L 38.09025192260742 35.43476867675781 C 38.09025192260742 35.90600967407227 37.70685958862305 36.28939819335938 37.23561096191406 36.28939819335938 Z M 30.28828048706055 34.58013916015625 L 36.3809814453125 34.58013916015625 L 36.3809814453125 23.45096397399902 L 30.28828048706055 19.25391006469727 L 30.28828048706055 34.58013916015625 Z M 27.09657096862793 34.58013916015625 L 27.66047096252441 34.58013916015625 L 28.57902145385742 34.58013916015625 L 28.57902145385742 14.54481029510498 L 23.40174674987793 10.83658218383789 L 17.87606048583984 14.71040916442871 L 17.87606048583984 34.58013916015625 L 19.00387001037598 34.58013916015625 L 19.00387001037598 28.28712272644043 C 18.9902172088623 27.61724472045898 19.25002288818359 26.95806884765625 19.71723175048828 26.47768974304199 C 20.18581008911133 25.99586868286133 20.84004020690918 25.71759986877441 21.51215171813965 25.71424865722656 L 21.51340103149414 25.7142391204834 L 21.51465034484863 25.7142391204834 L 24.58579063415527 25.7142391204834 C 25.26040077209473 25.71759986877441 25.91463088989258 25.99586868286133 26.38322067260742 26.47769927978516 C 26.85041999816895 26.95808792114258 27.1102237701416 27.61726379394531 27.09657096862793 28.28712272644043 L 27.09657096862793 34.58013916015625 Z M 23.90485000610352 34.58013916015625 L 25.38730049133301 34.58013916015625 L 25.38730049133301 28.28176879882812 L 25.38730049133301 28.27297973632812 L 25.38761138916016 28.26418876647949 C 25.3952808380127 28.04633903503418 25.31317138671875 27.83111953735352 25.16235160827637 27.67370986938477 C 25.01154136657715 27.51632881164551 24.80002021789551 27.42512893676758 24.58205032348633 27.42349815368652 L 23.90485000610352 27.42350578308105 L 23.90485000610352 34.58013916015625 Z M 20.7131404876709 34.58013916015625 L 22.19558143615723 34.58013916015625 L 22.19558143615723 27.42350959777832 L 21.51728630065918 27.42350959777832 C 21.29971122741699 27.42544174194336 21.08864212036133 27.51659774780273 20.93808174133301 27.67372894287109 C 20.78727149963379 27.83111953735352 20.70516014099121 28.04632949829102 20.71283149719238 28.26418876647949 L 20.7131404876709 28.27297973632812 L 20.7131404876709 28.28176879882812 L 20.7131404876709 34.58013916015625 Z M 24.25949096679688 7.337089061737061 L 25.95120811462402 7.337089061737061 L 25.91286087036133 7.285959243774414 C 25.68642044067383 6.984039306640625 25.68642044067383 6.562319278717041 25.91286087036133 6.26038932800293 L 25.95120048522949 6.209269046783447 L 24.25949096679688 6.209269046783447 L 24.25949096679688 7.337089061737061 Z" stroke="none" fill="#1e1e92"/>
    </g>
    <g id="パス_451" data-name="パス 451" transform="translate(-40.194 -31.987)" fill="#1e1e92">
      <path d="M 74.93800354003906 62.69945526123047 L 72.18360900878906 62.69945526123047 C 71.79160308837891 62.69945526123047 71.74928283691406 62.4312744140625 71.74928283691406 62.31597518920898 L 71.74928283691406 58.79084396362305 C 71.74394989013672 58.51407241821289 71.85303497314453 58.24329376220703 72.04881286621094 58.0474853515625 C 72.24213409423828 57.85418701171875 72.49909973144531 57.74774551391602 72.77241516113281 57.74774551391602 C 72.77900695800781 57.74774551391602 72.78564453125 57.74780654907227 72.79225921630859 57.7479362487793 L 74.32568359375 57.7479362487793 C 74.337158203125 57.7475700378418 74.34859466552734 57.74738693237305 74.36003875732422 57.74738693237305 C 74.63129425048828 57.74738693237305 74.88992309570312 57.8492546081543 75.08829498291016 58.03424453735352 C 75.29441833496094 58.22645568847656 75.41799163818359 58.49826431274414 75.42729187011719 58.77996444702148 L 75.42742919921875 58.78409576416016 L 75.42742919921875 58.78822708129883 L 75.42742919921875 62.31809616088867 C 75.42742919921875 62.40755462646484 75.39214324951172 62.69945526123047 74.93800354003906 62.69945526123047 Z M 72.67303466796875 61.77358627319336 L 74.50368499755859 61.77358627319336 L 74.50368499755859 60.73116683959961 L 72.67303466796875 60.73116683959961 L 72.67303466796875 61.77358627319336 Z M 72.67303466796875 59.80741500854492 L 74.50368499755859 59.80741500854492 L 74.50368499755859 58.79946136474609 C 74.49494934082031 58.7266845703125 74.43265533447266 58.67064666748047 74.35894012451172 58.67064666748047 C 74.35530853271484 58.67064666748047 74.35165405273438 58.6707763671875 74.34796905517578 58.67104721069336 L 74.33895874023438 58.67169570922852 L 74.32991790771484 58.67169570922852 L 72.78958129882812 58.67169570922852 L 72.78777313232422 58.45793533325195 L 72.77712249755859 58.67138671875 L 72.77214813232422 58.6712646484375 C 72.7459716796875 58.6712646484375 72.72032928466797 58.681884765625 72.70181274414062 58.70040512084961 C 72.68190765380859 58.72029495239258 72.67133331298828 58.74776458740234 72.67272186279297 58.77582550048828 L 72.67303466796875 58.78201675415039 L 72.67303466796875 58.78822708129883 L 72.67303466796875 59.80741500854492 Z" stroke="none"/>
      <path d="M 74.36003875732422 57.99738311767578 C 74.35000610351562 57.99738311767578 74.33998870849609 57.99756622314453 74.32991790771484 57.9979362487793 L 72.78958129882812 57.9979362487793 C 72.78386688232422 57.99781036376953 72.77811431884766 57.99774551391602 72.77241516113281 57.99774551391602 C 72.56754302978516 57.99774551391602 72.37080383300781 58.07905960083008 72.22560119628906 58.22424697875977 C 72.07637786865234 58.37348556518555 71.99461364746094 58.57723617553711 71.99928283691406 58.78822708129883 L 71.99928283691406 62.31597518920898 C 71.99928283691406 62.4325065612793 72.06709289550781 62.44945526123047 72.18360900878906 62.44945526123047 L 74.93800354003906 62.44945526123047 C 75.05453491210938 62.44945526123047 75.17742919921875 62.43461608886719 75.17742919921875 62.31809616088867 L 75.17742919921875 58.78822708129883 C 75.17024993896484 58.57090759277344 75.07682800292969 58.36538696289062 74.91779327392578 58.21708679199219 C 74.76612854003906 58.07565689086914 74.56666564941406 57.99739074707031 74.36003875732422 57.99738311767578 M 74.75368499755859 60.05741500854492 L 72.42303466796875 60.05741500854492 L 72.42303466796875 58.78822708129883 C 72.41812896728516 58.68959426879883 72.45516204833984 58.59348678588867 72.52500915527344 58.52365493774414 C 72.59071350097656 58.45793914794922 72.67970275878906 58.42126083374023 72.77215576171875 58.42126083374023 C 72.7779541015625 58.42126083374023 72.78376007080078 58.42140579223633 72.78958129882812 58.42169570922852 L 72.78535461425781 58.42169570922852 L 74.32991790771484 58.42169570922852 C 74.33964538574219 58.42099380493164 74.34934234619141 58.42064666748047 74.35894012451172 58.4206428527832 C 74.56474304199219 58.42062759399414 74.73855590820312 58.57972717285156 74.75368499755859 58.78822708129883 L 74.75368499755859 60.05741500854492 M 74.75368499755859 62.02358627319336 L 72.42303466796875 62.02358627319336 L 72.42303466796875 60.48116683959961 L 74.75368499755859 60.48116683959961 L 74.75368499755859 62.02358627319336 M 74.36003875732422 57.49738693237305 C 74.69480133056641 57.49738693237305 75.01398468017578 57.62311553955078 75.25880432128906 57.85141754150391 C 75.51318359375 58.08861541748047 75.66567230224609 58.42406463623047 75.67716217041016 58.7717170715332 L 75.67742919921875 58.77996444702148 L 75.67742919921875 58.78822708129883 L 75.67742919921875 62.31809616088867 C 75.67742919921875 62.38271713256836 75.65668487548828 62.94945526123047 74.93800354003906 62.94945526123047 L 72.18360900878906 62.94945526123047 C 71.67850494384766 62.94945526123047 71.49928283691406 62.60820770263672 71.49928283691406 62.31597518920898 L 71.49928283691406 58.79318618774414 C 71.49334716796875 58.44966888427734 71.62900543212891 58.11377334594727 71.87202453613281 57.8707160949707 C 72.11259460449219 57.63018417358398 72.43233489990234 57.49774551391602 72.77241516113281 57.49774551391602 C 72.77976989746094 57.49774551391602 72.78715515136719 57.49780654907227 72.79453277587891 57.4979362487793 L 74.32189178466797 57.4979362487793 C 74.33462524414062 57.49756622314453 74.34732055664062 57.49738693237305 74.36003875732422 57.49738693237305 Z M 74.25368499755859 58.92169570922852 L 72.92303466796875 58.92169570922852 L 72.92303466796875 59.55741500854492 L 74.25368499755859 59.55741500854492 L 74.25368499755859 58.92169570922852 Z M 74.25368499755859 60.98116683959961 L 72.92303466796875 60.98116683959961 L 72.92303466796875 61.52358627319336 L 74.25368499755859 61.52358627319336 L 74.25368499755859 60.98116683959961 Z" stroke="none" fill="#1e1e92"/>
    </g>
    <g id="パス_452" data-name="パス 452" transform="translate(-2.542 -31.989)" fill="#1e1e92">
      <path d="M 17.04465484619141 62.91109466552734 L 14.2902660369873 62.91109466552734 C 14.02224540710449 62.91109466552734 13.74999523162842 62.58073806762695 13.74999523162842 62.34327697753906 L 13.74999523162842 58.81553649902344 L 13.74999523162842 58.80510711669922 L 13.7508659362793 58.79471588134766 C 13.79983520507812 58.20875549316406 14.29872608184814 57.749755859375 14.88662528991699 57.749755859375 L 14.89888572692871 57.74981689453125 L 16.44080543518066 57.74980545043945 C 16.72167587280273 57.75514602661133 16.98621559143066 57.87566757202148 17.17139625549316 58.08052444458008 C 17.35413360595703 58.28267669677734 17.44736862182617 58.55348205566406 17.42813491821289 58.8250732421875 L 17.42813491821289 62.34327697753906 C 17.42813491821289 62.85576629638672 17.15995597839355 62.91109466552734 17.04465484619141 62.91109466552734 Z M 14.67374610900879 61.98733520507812 L 16.50438499450684 61.98733520507812 L 16.50438499450684 60.83163452148438 L 14.67374610900879 60.83163452148438 L 14.67374610900879 61.98733520507812 Z M 14.67374610900879 59.90788650512695 L 16.50438499450684 59.90788650512695 L 16.50438499450684 58.81553649902344 C 16.50438499450684 58.76250457763672 16.49612617492676 58.67355728149414 16.44080543518066 58.67355728149414 L 14.89623546600342 58.67355728149414 L 14.89344596862793 58.67355728149414 L 14.89064598083496 58.67349624633789 L 14.88563537597656 58.67343521118164 C 14.78399562835693 58.67343521118164 14.69738864898682 58.74247741699219 14.67374610900879 58.83983993530273 L 14.67374610900879 59.90788650512695 Z" stroke="none"/>
      <path d="M 14.88662910461426 57.999755859375 C 14.42451095581055 57.99972915649414 14.03857040405273 58.35396194458008 13.99999618530273 58.81553649902344 L 13.99999618530273 62.34327697753906 C 13.99999618530273 62.45980453491211 14.17373657226562 62.66109466552734 14.2902660369873 62.66109466552734 L 17.04465484619141 62.66109466552734 C 17.16118621826172 62.66109466552734 17.17813491821289 62.45980453491211 17.17813491821289 62.34327697753906 L 17.17813491821289 58.81553649902344 C 17.19513702392578 58.60799789428711 17.12557601928711 58.40264511108398 16.98593521118164 58.24816513061523 C 16.84629440307617 58.09368515014648 16.64900588989258 58.0037956237793 16.44080543518066 57.99980545043945 L 14.89623641967773 57.99980545043945 C 14.89304733276367 57.99977111816406 14.88980865478516 57.999755859375 14.88662910461426 57.999755859375 M 16.75438690185547 60.15788650512695 L 14.42374610900879 60.15788650512695 L 14.42374610900879 58.81553649902344 C 14.46109962463379 58.58895111083984 14.65702629089355 58.42343902587891 14.88563346862793 58.42343902587891 C 14.88916206359863 58.42343902587891 14.89269256591797 58.42347717285156 14.89623641967773 58.42355728149414 L 16.44080543518066 58.42355728149414 C 16.65268707275391 58.42355728149414 16.75438690185547 58.59941482543945 16.75438690185547 58.81553649902344 L 16.75438690185547 60.15788650512695 M 16.75438690185547 62.23733520507812 L 14.42374610900879 62.23733520507812 L 14.42374610900879 60.58163452148438 L 16.75438690185547 60.58163452148438 L 16.75438690185547 62.23733520507812 M 14.88656616210938 57.499755859375 L 14.90093612670898 57.49982452392578 L 16.44080543518066 57.49980545043945 L 16.44559478759766 57.49980545043945 L 16.45038604736328 57.49989700317383 C 16.79519653320312 57.50650787353516 17.12558555603027 57.65703582763672 17.35685539245605 57.91287612915039 C 17.58295822143555 58.16300964355469 17.69936370849609 58.4973030090332 17.67813491821289 58.83332824707031 L 17.67813491821289 62.34327697753906 C 17.67813491821289 63.13814544677734 17.1094970703125 63.16109466552734 17.04465484619141 63.16109466552734 L 14.2902660369873 63.16109466552734 C 13.8720760345459 63.16109466552734 13.49999618530273 62.70376586914062 13.49999618530273 62.34327697753906 L 13.49999618530273 58.81553649902344 L 13.49999618530273 58.79468536376953 L 13.50173568725586 58.77389526367188 C 13.56143569946289 58.05942535400391 14.16972541809082 57.499755859375 14.88656616210938 57.499755859375 Z M 16.25438690185547 58.92355728149414 L 14.92374610900879 58.92355728149414 L 14.92374610900879 59.65788650512695 L 16.25438690185547 59.65788650512695 L 16.25438690185547 58.92355728149414 Z M 16.25438690185547 61.08163452148438 L 14.92374610900879 61.08163452148438 L 14.92374610900879 61.73733520507812 L 16.25438690185547 61.73733520507812 L 16.25438690185547 61.08163452148438 Z" stroke="none" fill="#1e1e92"/>
    </g>
    <g id="楕円形_26" data-name="楕円形 26" transform="matrix(0.781, -0.625, 0.625, 0.781, 21.404, 32.157)" fill="#1e1e92" stroke="#1e1e92" stroke-width="0.5">
      <ellipse cx="0.266" cy="0.266" rx="0.266" ry="0.266" stroke="none"/>
      <ellipse cx="0.266" cy="0.266" rx="0.516" ry="0.516" fill="none"/>
    </g>
    <ellipse id="楕円形_28" data-name="楕円形 28" cx="1.5" cy="1" rx="1.5" ry="1" transform="translate(21.705 16.629)" fill="#fff"/>
    <g id="楕円形_27" data-name="楕円形 27" transform="matrix(0.781, -0.625, 0.625, 0.781, 23.888, 32.159)" fill="#1e1e92" stroke="#1e1e92" stroke-width="0.5">
      <ellipse cx="0.266" cy="0.266" rx="0.266" ry="0.266" stroke="none"/>
      <ellipse cx="0.266" cy="0.266" rx="0.516" ry="0.516" fill="none"/>
    </g>
    <g id="sun" transform="translate(17.785 12.052)">
      <g id="パス_455" data-name="パス 455" transform="translate(-3.862 -3.862)" fill="#1e1e92">
        <path d="M 9.438529014587402 11.02705860137939 C 8.56260871887207 11.02705860137939 7.849998950958252 10.31444931030273 7.849998950958252 9.438529014587402 C 7.849998950958252 8.56260871887207 8.56260871887207 7.849998950958252 9.438529014587402 7.849998950958252 C 10.31444931030273 7.849998950958252 11.02705860137939 8.56260871887207 11.02705860137939 9.438529014587402 C 11.02705860137939 10.31444931030273 10.31444931030273 11.02705860137939 9.438529014587402 11.02705860137939 Z M 9.438529014587402 8.509629249572754 C 8.926328659057617 8.509629249572754 8.509629249572754 8.926328659057617 8.509629249572754 9.438529014587402 C 8.509629249572754 9.950729370117188 8.926328659057617 10.36742877960205 9.438529014587402 10.36742877960205 C 9.950729370117188 10.36742877960205 10.36742877960205 9.950729370117188 10.36742877960205 9.438529014587402 C 10.36742877960205 8.926328659057617 9.950729370117188 8.509629249572754 9.438529014587402 8.509629249572754 Z" stroke="none"/>
        <path d="M 9.438529014587402 10.87705898284912 C 10.23300933837891 10.87705898284912 10.87705898284912 10.23300933837891 10.87705898284912 9.438529014587402 C 10.87705898284912 8.644048690795898 10.23300933837891 7.999999046325684 9.438529014587402 7.999999046325684 C 8.644048690795898 7.999999046325684 7.999999046325684 8.644048690795898 7.999999046325684 9.438529014587402 C 7.999999046325684 10.23300933837891 8.644048690795898 10.87705898284912 9.438529014587402 10.87705898284912 M 9.438529014587402 8.359628677368164 C 10.03438854217529 8.359628677368164 10.51742935180664 8.842669486999512 10.51742935180664 9.438529014587402 C 10.51742935180664 10.03438854217529 10.03438854217529 10.51742935180664 9.438529014587402 10.51742935180664 C 8.842669486999512 10.51742935180664 8.359628677368164 10.03438854217529 8.359628677368164 9.438529014587402 C 8.359628677368164 8.842669486999512 8.842669486999512 8.359628677368164 9.438529014587402 8.359628677368164 M 9.438529014587402 11.17705917358398 C 8.479899406433105 11.17705917358398 7.69999885559082 10.3971586227417 7.69999885559082 9.438529014587402 C 7.69999885559082 8.479899406433105 8.479899406433105 7.69999885559082 9.438529014587402 7.69999885559082 C 10.3971586227417 7.69999885559082 11.17705917358398 8.479899406433105 11.17705917358398 9.438529014587402 C 11.17705917358398 10.3971586227417 10.3971586227417 11.17705917358398 9.438529014587402 11.17705917358398 Z M 9.438529014587402 8.659628868103027 C 9.009038925170898 8.659628868103027 8.659628868103027 9.009038925170898 8.659628868103027 9.438529014587402 C 8.659628868103027 9.868019104003906 9.009038925170898 10.21742916107178 9.438529014587402 10.21742916107178 C 9.868019104003906 10.21742916107178 10.21742916107178 9.868019104003906 10.21742916107178 9.438529014587402 C 10.21742916107178 9.009038925170898 9.868019104003906 8.659628868103027 9.438529014587402 8.659628868103027 Z" stroke="none" fill="#1e1e92"/>
      </g>
      <g id="パス_456" data-name="パス 456" transform="translate(-9.679)" fill="#1e1e92">
        <path d="M 15.25548839569092 3.171955823898315 C 15.03189849853516 3.171955823898315 14.84999847412109 2.990055799484253 14.84999847412109 2.766465902328491 L 14.84999847412109 2.255485773086548 C 14.84999847412109 2.031895875930786 15.03189849853516 1.849995851516724 15.25548839569092 1.849995851516724 C 15.47907829284668 1.849995851516724 15.66097831726074 2.031895875930786 15.66097831726074 2.255485773086548 L 15.66097831726074 2.766465902328491 C 15.66097831726074 2.990055799484253 15.47907829284668 3.171955823898315 15.25548839569092 3.171955823898315 Z" stroke="none"/>
        <path d="M 15.25548839569092 3.021955728530884 C 15.39658832550049 3.021955728530884 15.51097869873047 2.907565832138062 15.51097869873047 2.766465902328491 L 15.51097869873047 2.255485773086548 C 15.51097869873047 2.114385843276978 15.39658832550049 1.999995827674866 15.25548839569092 1.999995827674866 C 15.11438846588135 1.999995827674866 14.99999809265137 2.114385843276978 14.99999809265137 2.255485773086548 L 14.99999809265137 2.766465902328491 C 14.99999809265137 2.907565832138062 15.11438846588135 3.021955728530884 15.25548839569092 3.021955728530884 M 15.25548839569092 3.321955919265747 C 14.94918823242188 3.321955919265747 14.69999885559082 3.072765827178955 14.69999885559082 2.766465902328491 L 14.69999885559082 2.255485773086548 C 14.69999885559082 1.949185848236084 14.94918823242188 1.699995875358582 15.25548839569092 1.699995875358582 C 15.56178855895996 1.699995875358582 15.81097793579102 1.949185848236084 15.81097793579102 2.255485773086548 L 15.81097793579102 2.766465902328491 C 15.81097793579102 3.072765827178955 15.56178855895996 3.321955919265747 15.25548839569092 3.321955919265747 Z" stroke="none" fill="#1e1e92"/>
      </g>
      <g id="パス_457" data-name="パス 457" transform="translate(-2.873 -2.873)" fill="#1e1e92">
        <path d="M 6.462615489959717 6.869145393371582 C 6.354025363922119 6.869145393371582 6.251935482025146 6.826855659484863 6.175145626068115 6.750075340270996 L 5.814535617828369 6.386905670166016 L 5.810635566711426 6.382985591888428 L 5.807045459747314 6.378785610198975 C 5.670145511627197 6.218925476074219 5.6794753074646 5.977115631103516 5.828295707702637 5.828295707702637 C 5.904885292053223 5.751715660095215 6.006725311279297 5.709535598754883 6.115065574645996 5.709535598754883 C 6.211705684661865 5.709535598754883 6.305355548858643 5.744165420532227 6.378785610198975 5.807045459747314 L 6.382985591888428 5.810635566711426 L 6.386905670166016 5.814535617828369 L 6.749695301055908 6.17477560043335 C 6.908575534820557 6.33365535736084 6.908575534820557 6.591565608978271 6.750075340270996 6.750075340270996 C 6.673285484313965 6.826855659484863 6.571195602416992 6.869145393371582 6.462615489959717 6.869145393371582 Z" stroke="none"/>
        <path d="M 6.462610721588135 6.719140529632568 C 6.528263092041016 6.719140529632568 6.593915462493896 6.694095611572266 6.644005298614502 6.644005298614502 C 6.744185447692871 6.543825626373291 6.744185447692871 6.38139533996582 6.644005298614502 6.281215667724609 L 6.281215667724609 5.920975685119629 C 6.233222007751465 5.879875183105469 6.17406177520752 5.859537124633789 6.115069389343262 5.859537124633789 C 6.049460887908936 5.859537124633789 5.984055995941162 5.884675025939941 5.934365272521973 5.934365272521973 C 5.839995384216309 6.028735637664795 5.834165573120117 6.179845333099365 5.920975685119629 6.281215667724609 L 6.281215667724609 6.644005298614502 C 6.331305503845215 6.694095611572266 6.396957874298096 6.719140529632568 6.462610721588135 6.719140529632568 M 6.462615489959717 7.019145488739014 C 6.313955307006836 7.019145488739014 6.174205303192139 6.961255550384521 6.069085597991943 6.856135368347168 L 5.708095550537109 6.492595672607422 L 5.700305461883545 6.484755516052246 L 5.693115711212158 6.47635555267334 C 5.505565643310547 6.257355690002441 5.518365383148193 5.926105499267578 5.722235679626465 5.722235679626465 C 5.827155590057373 5.617315292358398 5.966665744781494 5.559535503387451 6.115065574645996 5.559535503387451 C 6.24746561050415 5.559535503387451 6.375775337219238 5.606975555419922 6.47635555267334 5.693115711212158 L 6.484755516052246 5.700305461883545 L 6.492595672607422 5.708095550537109 L 6.855385303497314 6.06833553314209 C 7.07312536239624 6.286075592041016 7.07312536239624 6.639145374298096 6.856135368347168 6.856135368347168 C 6.751015663146973 6.961255550384521 6.611265659332275 7.019145488739014 6.462615489959717 7.019145488739014 Z" stroke="none" fill="#1e1e92"/>
      </g>
      <g id="パス_458" data-name="パス 458" transform="translate(0 -9.679)" fill="#1e1e92">
        <path d="M 2.766465902328491 15.66097831726074 L 2.255485773086548 15.66097831726074 C 2.031895875930786 15.66097831726074 1.849995851516724 15.47907829284668 1.849995851516724 15.25548839569092 C 1.849995851516724 15.03189849853516 2.031895875930786 14.84999847412109 2.255485773086548 14.84999847412109 L 2.766465902328491 14.84999847412109 C 2.990055799484253 14.84999847412109 3.171955823898315 15.03189849853516 3.171955823898315 15.25548839569092 C 3.171955823898315 15.47907829284668 2.990055799484253 15.66097831726074 2.766465902328491 15.66097831726074 Z" stroke="none"/>
        <path d="M 2.766465902328491 15.51097869873047 C 2.907565832138062 15.51097869873047 3.021955728530884 15.39658832550049 3.021955728530884 15.25548839569092 C 3.021955728530884 15.11438846588135 2.907565832138062 14.99999809265137 2.766465902328491 14.99999809265137 L 2.255485773086548 14.99999809265137 C 2.114385843276978 14.99999809265137 1.999995827674866 15.11438846588135 1.999995827674866 15.25548839569092 C 1.999995827674866 15.39658832550049 2.114385843276978 15.51097869873047 2.255485773086548 15.51097869873047 L 2.766465902328491 15.51097869873047 M 2.766465902328491 15.81097793579102 L 2.255485773086548 15.81097793579102 C 1.949185848236084 15.81097793579102 1.699995875358582 15.56178855895996 1.699995875358582 15.25548839569092 C 1.699995875358582 14.94918823242188 1.949185848236084 14.69999885559082 2.255485773086548 14.69999885559082 L 2.766465902328491 14.69999885559082 C 3.072765827178955 14.69999885559082 3.321955919265747 14.94918823242188 3.321955919265747 15.25548839569092 C 3.321955919265747 15.56178855895996 3.072765827178955 15.81097793579102 2.766465902328491 15.81097793579102 Z" stroke="none" fill="#1e1e92"/>
      </g>
      <g id="パス_460" data-name="パス 460" transform="translate(-9.679 -17.868)" fill="#1e1e92">
        <path d="M 15.25548839569092 27.17194557189941 C 15.03189849853516 27.17194557189941 14.84999847412109 26.99004554748535 14.84999847412109 26.76646423339844 L 14.84999847412109 26.25548553466797 C 14.84999847412109 26.03190422058105 15.03189849853516 25.85000419616699 15.25548839569092 25.85000419616699 C 15.47907829284668 25.85000419616699 15.66097831726074 26.03190422058105 15.66097831726074 26.25548553466797 L 15.66097831726074 26.76646423339844 C 15.66097831726074 26.99004554748535 15.47907829284668 27.17194557189941 15.25548839569092 27.17194557189941 Z" stroke="none"/>
        <path d="M 15.25548839569092 26.0000057220459 C 15.11438846588135 26.0000057220459 14.99999809265137 26.1143856048584 14.99999809265137 26.25548553466797 L 14.99999809265137 26.76646423339844 C 14.99999809265137 26.90756416320801 15.11438846588135 27.02194404602051 15.25548839569092 27.02194404602051 C 15.39658832550049 27.02194404602051 15.51097869873047 26.90756416320801 15.51097869873047 26.76646423339844 L 15.51097869873047 26.25548553466797 C 15.51097869873047 26.1143856048584 15.39658832550049 26.0000057220459 15.25548839569092 26.0000057220459 M 15.25548839569092 25.70000457763672 C 15.56178855895996 25.70000457763672 15.81097793579102 25.94919395446777 15.81097793579102 26.25548553466797 L 15.81097793579102 26.76646423339844 C 15.81097793579102 27.07275581359863 15.56178855895996 27.32194519042969 15.25548839569092 27.32194519042969 C 14.94918823242188 27.32194519042969 14.69999885559082 27.07275581359863 14.69999885559082 26.76646423339844 L 14.69999885559082 26.25548553466797 C 14.69999885559082 25.94919395446777 14.94918823242188 25.70000457763672 15.25548839569092 25.70000457763672 Z" stroke="none" fill="#1e1e92"/>
      </g>
      <g id="パス_461" data-name="パス 461" transform="translate(-15.47 -15.47)" fill="#1e1e92">
        <path d="M 23.37986373901367 23.78541374206543 C 23.28323364257812 23.78541374206543 23.1895923614502 23.75078392028809 23.11617279052734 23.68792343139648 L 23.11176300048828 23.68414306640625 L 23.10766220092773 23.6800422668457 L 22.74743270874023 23.31979370117188 C 22.59042358398438 23.16186332702637 22.59042358398438 22.90538215637207 22.74712371826172 22.74775314331055 C 22.82424354553223 22.67108345031738 22.92576217651367 22.62920379638672 23.03362274169922 22.62920379638672 C 23.14148330688477 22.62920379638672 23.24300384521484 22.67108345031738 23.31949234008789 22.74712371826172 L 23.6800422668457 23.10766220092773 L 23.68414306640625 23.11176300048828 L 23.68792343139648 23.11617279052734 C 23.82480239868164 23.27603340148926 23.81546211242676 23.5178337097168 23.66665267944336 23.66665267944336 C 23.59006309509277 23.74324226379395 23.48821258544922 23.78541374206543 23.37986373901367 23.78541374206543 Z" stroke="none"/>
        <path d="M 23.03362083435059 22.77920722961426 C 22.96847534179688 22.77920722961426 22.90332794189453 22.8039722442627 22.85350227355957 22.85350227355957 C 22.75444221496582 22.95315361022949 22.75444221496582 23.11409378051758 22.85350227355957 23.2137336730957 L 23.2137336730957 23.57398223876953 C 23.26172637939453 23.61507797241211 23.32088088989258 23.63541221618652 23.37987327575684 23.63541221618652 C 23.44548225402832 23.63541221618652 23.51089286804199 23.61027336120605 23.56058311462402 23.56058311462402 C 23.65495300292969 23.46621322631836 23.6607837677002 23.31510353088379 23.57398223876953 23.2137336730957 L 23.2137336730957 22.85350227355957 C 23.16391372680664 22.8039722442627 23.09876823425293 22.77920722961426 23.03362083435059 22.77920722961426 M 23.03362274169922 22.47920227050781 C 23.18137359619141 22.47920227050781 23.32046318054199 22.53657341003418 23.42524337768555 22.6407527923584 L 23.78611373901367 23.0015926361084 L 23.79431343078613 23.00980377197266 L 23.8018627166748 23.01861381530762 C 23.98938369750977 23.23761367797852 23.97658348083496 23.5688533782959 23.77271270751953 23.77271270751953 C 23.66779327392578 23.87763214111328 23.52828216552734 23.9354133605957 23.37987327575684 23.9354133605957 C 23.24747276306152 23.9354133605957 23.11916351318359 23.88797378540039 23.01859283447266 23.80184364318848 L 23.00979232788086 23.79430389404297 L 23.0015926361084 23.78611373901367 L 22.6413631439209 23.42586326599121 C 22.42607307434082 23.20931243896484 22.42607307434082 22.85795211791992 22.64074325561523 22.64200210571289 C 22.74677276611328 22.53657341003418 22.88586235046387 22.47920227050781 23.03362274169922 22.47920227050781 Z" stroke="none" fill="#1e1e92"/>
      </g>
      <g id="パス_464" data-name="パス 464" transform="translate(-19.872 -15.47)" fill="#1e1e92">
        <path d="M 23.03475189208984 23.7854118347168 C 22.92641258239746 23.7854118347168 22.82457160949707 23.74323081970215 22.74798202514648 23.66665077209473 C 22.59915161132812 23.51782035827637 22.58981132507324 23.27602195739746 22.72671127319336 23.11617088317871 L 22.73048210144043 23.11177062988281 L 22.73458290100098 23.1076717376709 L 23.0948314666748 22.7474308013916 C 23.17163276672363 22.67108154296875 23.27315139770508 22.62920188903809 23.38101196289062 22.62920188903809 C 23.48887252807617 22.62920188903809 23.59039306640625 22.67108154296875 23.6668815612793 22.74712181091309 C 23.8242130279541 22.90538024902344 23.8242130279541 23.16186141967773 23.66751289367676 23.31949043273926 L 23.30695152282715 23.68004035949707 L 23.3028621673584 23.68413162231445 L 23.2984619140625 23.68790054321289 C 23.22504234313965 23.75078201293945 23.13138198852539 23.7854118347168 23.03475189208984 23.7854118347168 Z" stroke="none"/>
        <path d="M 23.38101196289062 22.77920532226562 C 23.31586456298828 22.77920532226562 23.25071716308594 22.80397033691406 23.20089149475098 22.85350036621094 L 22.84064292907715 23.21374130249023 C 22.75383186340332 23.31510162353516 22.75967216491699 23.46621131896973 22.85404205322266 23.56058120727539 C 22.90373229980469 23.61026573181152 22.96914291381836 23.63540649414062 23.03475189208984 23.63540649414062 C 23.0937442779541 23.63540649414062 23.15289878845215 23.61507034301758 23.20089149475098 23.57397079467773 L 23.56113243103027 23.21374130249023 C 23.66019248962402 23.11409187316895 23.66019248962402 22.95315170288086 23.56113243103027 22.85350036621094 C 23.51130676269531 22.80397033691406 23.44615936279297 22.77920532226562 23.38101196289062 22.77920532226562 M 23.38101196289062 22.47920036315918 C 23.52875137329102 22.47920036315918 23.66783142089844 22.53657150268555 23.77262306213379 22.64073181152344 C 23.98855209350586 22.85794067382812 23.98855209350586 23.20930099487305 23.77389144897461 23.42524147033691 L 23.41302299499512 23.78610038757324 L 23.40483283996582 23.79429054260254 L 23.39603233337402 23.80183029174805 C 23.29546165466309 23.88796043395996 23.16715240478516 23.93540191650391 23.03475189208984 23.93540191650391 C 22.88633155822754 23.93540191650391 22.74682235717773 23.87762069702148 22.64191246032715 23.7727108001709 C 22.43803215026855 23.5688304901123 22.42523193359375 23.23758125305176 22.61279296875 23.01859092712402 L 22.62032127380371 23.00980186462402 L 22.62851142883301 23.00161170959473 L 22.98876190185547 22.64137077331543 C 23.09416198730469 22.53657150268555 23.23325157165527 22.47920036315918 23.38101196289062 22.47920036315918 Z" stroke="none" fill="#1e1e92"/>
      </g>
      <g id="パス_462" data-name="パス 462" transform="translate(-17.868 -9.679)" fill="#1e1e92">
        <path d="M 26.76646423339844 15.66097831726074 L 26.25548553466797 15.66097831726074 C 26.03190422058105 15.66097831726074 25.85000419616699 15.47907829284668 25.85000419616699 15.25548839569092 C 25.85000419616699 15.03189849853516 26.03190422058105 14.84999847412109 26.25548553466797 14.84999847412109 L 26.76646423339844 14.84999847412109 C 26.99004554748535 14.84999847412109 27.17194557189941 15.03189849853516 27.17194557189941 15.25548839569092 C 27.17194557189941 15.47907829284668 26.99004554748535 15.66097831726074 26.76646423339844 15.66097831726074 Z" stroke="none"/>
        <path d="M 26.25548553466797 14.99999809265137 C 26.1143856048584 14.99999809265137 26.0000057220459 15.11438846588135 26.0000057220459 15.25548839569092 C 26.0000057220459 15.39658832550049 26.1143856048584 15.51097869873047 26.25548553466797 15.51097869873047 L 26.76646423339844 15.51097869873047 C 26.90756416320801 15.51097869873047 27.02194404602051 15.39658832550049 27.02194404602051 15.25548839569092 C 27.02194404602051 15.11438846588135 26.90756416320801 14.99999809265137 26.76646423339844 14.99999809265137 L 26.25548553466797 14.99999809265137 M 26.25548553466797 14.69999885559082 L 26.76646423339844 14.69999885559082 C 27.07275581359863 14.69999885559082 27.32194519042969 14.94918823242188 27.32194519042969 15.25548839569092 C 27.32194519042969 15.56178855895996 27.07275581359863 15.81097793579102 26.76646423339844 15.81097793579102 L 26.25548553466797 15.81097793579102 C 25.94919395446777 15.81097793579102 25.70000457763672 15.56178855895996 25.70000457763672 15.25548839569092 C 25.70000457763672 14.94918823242188 25.94919395446777 14.69999885559082 26.25548553466797 14.69999885559082 Z" stroke="none" fill="#1e1e92"/>
      </g>
      <g id="パス_463" data-name="パス 463" transform="translate(-15.467 -2.873)" fill="#1e1e92">
        <path d="M 23.03264617919922 6.86809253692627 L 23.03219604492188 6.86809253692627 L 23.0302562713623 6.86809253692627 C 22.86519622802734 6.86809253692627 22.71821594238281 6.769962310791016 22.65516471862793 6.618102550506592 C 22.59171485900879 6.465282440185547 22.62662506103516 6.291242599487305 22.74410629272461 6.174712657928467 L 23.10684585571289 5.814532279968262 L 23.11076545715332 5.810642719268799 L 23.11496543884277 5.807042598724365 C 23.18837547302246 5.744162559509277 23.28202629089355 5.709542751312256 23.37866592407227 5.709542751312256 C 23.48700523376465 5.709542751312256 23.5888557434082 5.75172233581543 23.66544532775879 5.828302383422852 C 23.81425476074219 5.97712230682373 23.82359504699707 6.21892261505127 23.68669509887695 6.378782749176025 L 23.68310546875 6.382982730865479 L 23.6792049407959 6.386902332305908 L 23.3189754486084 6.749692440032959 C 23.2417163848877 6.826332569122314 23.14031600952148 6.86809253692627 23.03264617919922 6.86809253692627 Z" stroke="none"/>
        <path d="M 23.03264236450195 6.718096733093262 C 23.10001182556152 6.718096733093262 23.16467094421387 6.691479206085205 23.2125358581543 6.644002437591553 L 23.5727653503418 6.281212329864502 C 23.65957641601562 6.179842472076416 23.65374565124512 6.02874231338501 23.55937576293945 5.934372425079346 C 23.50969123840332 5.884687900543213 23.44426155090332 5.859538555145264 23.378662109375 5.859538555145264 C 23.31966400146484 5.859538555145264 23.26053047180176 5.879867076873779 23.2125358581543 5.920972347259521 L 22.84973526000977 6.281212329864502 C 22.77604484558105 6.354302406311035 22.7538948059082 6.464722633361816 22.7936954498291 6.560582637786865 C 22.83330154418945 6.655974388122559 22.92643928527832 6.718093872070312 23.02962493896484 6.718096733093262 C 23.03013038635254 6.718096733093262 23.0306282043457 6.718095302581787 23.03113555908203 6.718092441558838 C 23.03163719177246 6.718095302581787 23.03214073181152 6.718096733093262 23.03264236450195 6.718096733093262 M 23.03264617919922 7.018092632293701 L 23.03113555908203 7.018092632293701 C 22.80437469482422 7.018092632293701 22.6030158996582 6.883672714233398 22.51663589477539 6.675632476806641 C 22.4297046661377 6.466262340545654 22.47753524780273 6.227842330932617 22.63847541809082 6.068212509155273 L 23.00115585327148 5.70809268951416 L 23.00899505615234 5.700302600860596 L 23.01738548278809 5.693122386932373 C 23.11796569824219 5.606982707977295 23.24626541137695 5.559542655944824 23.37866592407227 5.559542655944824 C 23.52707481384277 5.559542655944824 23.66658592224121 5.617322444915771 23.77150535583496 5.72224235534668 C 23.97537612915039 5.926112651824951 23.9881649017334 6.257352352142334 23.80062484741211 6.476352691650391 L 23.79343605041504 6.484742641448975 L 23.78564643859863 6.492592334747314 L 23.4254150390625 6.855382442474365 C 23.31909561157227 6.960872650146484 23.18017578125 7.018092632293701 23.03264617919922 7.018092632293701 Z" stroke="none" fill="#1e1e92"/>
      </g>
    </g>
  </g>
</svg>
