<svg xmlns="http://www.w3.org/2000/svg" width="27.615" height="24" viewBox="0 0 27.615 24">
  <path id="icon_post_off" d="M390.635,193.933c-.708-.365-.683-.914.053-1.224l26.022-10.978c.738-.311,1.174.068.976.836L411.97,204.8a.977.977,0,0,1-1.574.611l-5.15-3.347a.878.878,0,0,0-1.093.143l-2.572,2.835a.785.785,0,0,1-1.447-.3l-2.222-6.5a2.065,2.065,0,0,0-.874-1.016Zm7.3.882a4.573,4.573,0,0,1,1.938,2.247l1.118,3.271a.433.433,0,0,0,.795.17l1.034-1.14a1.942,1.942,0,0,1,2.416-.315l4.24,2.755a.538.538,0,0,0,.869-.344l3.993-15.535c.111-.43-.129-.64-.538-.467l-17.969,7.581c-.408.172-.418.477-.035.674Z" transform="translate(-390.119 -181.622)" fill="#9caab4"/>
</svg>
