<svg xmlns="http://www.w3.org/2000/svg" width="27.778" height="24" viewBox="0 0 27.778 24">
  <path id="icon_heart_off" d="M914.921,205.622a2.273,2.273,0,0,1-1.225-.357c-.656-.419-6.507-4.213-9.715-8.1a11.878,11.878,0,0,1-2.817-7.155,8.242,8.242,0,0,1,2.307-6.145c2.993-2.914,8.358-2.8,11.482.238h0l.042.04.165-.179c3.128-3.031,8.49-3.131,11.474-.212,3.276,3.2,3.03,9.178-.548,13.318a53.487,53.487,0,0,1-9.948,8.2A2.269,2.269,0,0,1,914.921,205.622Zm-5.949-21.413a5.4,5.4,0,0,0-3.781,1.42c-2.051,2-2.352,6.268.693,9.962a44.966,44.966,0,0,0,9.037,7.528,51.473,51.473,0,0,0,9.3-7.666c2.4-2.778,3.251-7.435.689-9.94a6.029,6.029,0,0,0-8,.193l-1.8,1.985-1.874-1.824A6.141,6.141,0,0,0,908.973,184.209Z" transform="translate(-901.161 -181.622)" fill="#9caab4"/>
</svg>
