<svg xmlns="http://www.w3.org/2000/svg" width="120.444" height="51.75" viewBox="0 0 120.444 51.75">
  <g id="グループ化_32" data-name="グループ化 32" transform="translate(-799.652 -679.65)">
    <rect id="長方形_107" data-name="長方形 107" width="69.059" height="42.794" transform="translate(845.652 685.035)" fill="#fff"/>
    <rect id="長方形_108" data-name="長方形 108" width="61.076" height="39.517" transform="translate(853.635 688.312)" fill="#ffbe4d"/>
    <g id="グループ化_31" data-name="グループ化 31" transform="translate(799.652 679.65)">
      <path id="パス_388" data-name="パス 388" d="M835.772,716.722v-.657a3.391,3.391,0,0,0-3.415-3.415h-29.29a3.391,3.391,0,0,0-3.415,3.415v.657a3.391,3.391,0,0,0,3.415,3.415h29.159A3.6,3.6,0,0,0,835.772,716.722Z" transform="translate(-799.652 -698.202)" fill="#1e1e92"/>
      <path id="パス_389" data-name="パス 389" d="M842.557,775.65h-29.29a3.391,3.391,0,0,0-3.415,3.415v.657a3.391,3.391,0,0,0,3.415,3.415h29.159a3.391,3.391,0,0,0,3.415-3.415v-.657A3.284,3.284,0,0,0,842.557,775.65Z" transform="translate(-805.386 -733.619)" fill="#1e1e92"/>
      <path id="パス_390" data-name="パス 390" d="M935.7,679.65H876.59a11.191,11.191,0,0,0-3.021.525H847.3a3.671,3.671,0,0,0-3.678,3.678,3.759,3.759,0,0,0,3.678,3.678h21.278v20.227H845.33a3.678,3.678,0,0,0,0,7.355h23.248v8.275a8.044,8.044,0,0,0,8.012,8.012H935.7a8.044,8.044,0,0,0,8.012-8.012V687.793A8.158,8.158,0,0,0,935.7,679.65Zm-.525,5.385-27.32,24.43a2.3,2.3,0,0,1-3.284,0l-27.32-24.43Zm-61.207,38.353v-34.15l18.388,16.418Zm4.86,2.89,17.6-16.812,4.6,4.072a7.816,7.816,0,0,0,10.376,0l4.6-4.2,17.469,16.944Zm59.5-2.89-18.388-17.732,18.388-16.418Z" transform="translate(-823.264 -679.65)" fill="#1e1e92"/>
    </g>
  </g>
</svg>
