<svg xmlns="http://www.w3.org/2000/svg" width="27.615" height="24" viewBox="0 0 27.615 24">
  <g id="icon_post_on" transform="translate(-140 110)">
    <path id="パス_260" data-name="パス 260" d="M429.884,436.075,406.32,446.407l5.621,4.477,2.2,6.39,3.966-2.846,7.134,3.974Z" transform="translate(-263.816 -545.504)" fill="#ffbe4d"/>
    <path id="パス_261" data-name="パス 261" d="M414.021,463.864l20.553-8.363L417.621,465.96Z" transform="translate(-270.326 -561.928)" fill="#fff"/>
    <path id="パス_262" data-name="パス 262" d="M390.635,444.694c-.708-.365-.683-.914.053-1.224l26.022-10.978c.738-.311,1.173.068.976.836l-5.716,22.238a.977.977,0,0,1-1.574.611l-5.15-3.347a.878.878,0,0,0-1.093.143l-2.572,2.835a.785.785,0,0,1-1.447-.3l-2.222-6.5a2.064,2.064,0,0,0-.874-1.016Zm7.3.882a4.574,4.574,0,0,1,1.938,2.247l1.118,3.271a.433.433,0,0,0,.795.17l1.034-1.14a1.942,1.942,0,0,1,2.416-.315l4.24,2.755a.538.538,0,0,0,.869-.344l3.993-15.535c.111-.43-.129-.64-.538-.467L395.833,443.8c-.408.172-.418.477-.035.674Z" transform="translate(-250.119 -542.383)" fill="#1e1e92"/>
  </g>
</svg>
