<svg xmlns="http://www.w3.org/2000/svg" width="28" height="24.539" viewBox="0 0 28 24.539">
  <path id="icon_house" d="M143.462,177.55a1.183,1.183,0,0,0-1.626,0L129,189.761a1.183,1.183,0,0,0,1.626,1.715l2.365-2.247v9.58a2.957,2.957,0,0,0,2.957,2.957h13.364a2.957,2.957,0,0,0,2.957-2.957v-9.58l2.365,2.247a1.183,1.183,0,1,0,1.7-1.647q-.034-.035-.071-.067Zm.71,21.85h-3.045v-5h3.016Zm5.736-.591a.591.591,0,0,1-.591.591h-2.809v-5a2.365,2.365,0,0,0-2.365-2.365h-3.016a2.365,2.365,0,0,0-2.365,2.365v5h-2.809a.591.591,0,0,1-.591-.591V186.982l7.273-6.948,7.273,6.919Z" transform="translate(-128.669 -177.226)" fill="#9caab4"/>
</svg>
