<svg xmlns="http://www.w3.org/2000/svg" width="24.479" height="24.4" viewBox="0 0 24.479 24.4">
  <path id="icon_search_off" d="M1192.208,188.36a2.908,2.908,0,0,1-2.058-.852l-3.835-3.847a10.044,10.044,0,0,1-5.064,1.323,10.312,10.312,0,1,1,9.021-5.317l3.913,3.879a2.811,2.811,0,0,1-1.978,4.814Zm-5.782-7.107a1.466,1.466,0,0,1,1.039.429l4.25,4.264a.659.659,0,0,0,.9.047.617.617,0,0,0,.009-.882l-4.37-4.332a1.328,1.328,0,0,1-.209-1.7,8.1,8.1,0,1,0-6.8,3.692,7.852,7.852,0,0,0,4.379-1.284h0A1.447,1.447,0,0,1,1186.425,181.253Z" transform="translate(-1170.739 -164.16)" fill="#9caab4" stroke="#9caab4" stroke-width="0.4"/>
</svg>
