<svg xmlns="http://www.w3.org/2000/svg" width="23.903" height="24" viewBox="0 0 23.903 24">
  <g id="icon_comment_off" transform="translate(-637.982 -412.312)">
    <path id="パス_269" data-name="パス 269" d="M659.23,417.976h0a10.669,10.669,0,0,0-10.669,10.669v1.193a10.627,10.627,0,0,0,2.581,6.958l-1.252,2.177,3.943.07,0,0a10.618,10.618,0,0,0,5.4,1.467h0A10.669,10.669,0,0,0,669.9,429.837v-1.193A10.669,10.669,0,0,0,659.23,417.976Z" transform="translate(-9.178 -4.914)" fill="#db588d"/>
    <path id="パス_270" data-name="パス 270" d="M651.156,435.341l-.979,4.614a49.2,49.2,0,0,1,7.215-1.3l-.02.32a10.963,10.963,0,0,0,10.689-10.989V426.79c0-5.892-4.624-8.814-10.516-8.814-.222.15-6.833,5.385-6.833,5.385l-1.216,8.1Z" transform="translate(-9.99 -4.914)" fill="#f66b9c"/>
    <g id="グループ_11" data-name="グループ 11" transform="translate(637.982 412.312)">
      <path id="パス_271" data-name="パス 271" d="M649.909,412.312a11.864,11.864,0,0,0-11.677,9.615l0,.018c-.049.34-.1.633-.145.915l0,.022a13.221,13.221,0,0,0-.1,1.455,12.012,12.012,0,0,0,2.667,7.545,5.563,5.563,0,0,1-1.587,1.134,1.138,1.138,0,0,0-.245,2.078,7.836,7.836,0,0,0,3.844,1.024,7.581,7.581,0,0,0,2.968-.579,11.715,11.715,0,0,0,4.281.774,12,12,0,0,0,0-24Zm-3.629,21.031a1.11,1.11,0,0,0-.312-.152,1.04,1.04,0,0,0-.766.06,1.115,1.115,0,0,0-.186.092,5.106,5.106,0,0,1-2.306.52,5.839,5.839,0,0,1-.77-.051,8.049,8.049,0,0,0,1-1.116l0,0a1.134,1.134,0,0,0,.289-.485,1.08,1.08,0,0,0,.039-.567,1.169,1.169,0,0,0-.475-.72c-.022-.016-.045-.03-.068-.044a9.654,9.654,0,0,1-2.539-6.541,9.081,9.081,0,0,1,.094-1.167l0-.049a3.778,3.778,0,0,1,.09-.7,9.753,9.753,0,1,1,5.9,10.925Z" transform="translate(-637.982 -412.312)" fill="#1e1e92"/>
      <circle id="楕円形_15" data-name="楕円形 15" cx="1.362" cy="1.362" r="1.362" transform="translate(10.565 10.613)" fill="#1e1e92"/>
      <circle id="楕円形_16" data-name="楕円形 16" cx="1.362" cy="1.362" r="1.362" transform="translate(15.77 10.613)" fill="#1e1e92"/>
      <circle id="楕円形_17" data-name="楕円形 17" cx="1.362" cy="1.362" r="1.362" transform="translate(5.311 10.613)" fill="#1e1e92"/>
    </g>
    <path id="パス_272" data-name="パス 272" d="M673.567,446.5a.994.994,0,0,1-.855-1.5,6.694,6.694,0,0,1,3.812-3.142.993.993,0,0,1,.48,1.928,4.738,4.738,0,0,0-2.58,2.224A.993.993,0,0,1,673.567,446.5Z" transform="translate(-30.011 -25.605)" fill="#fff"/>
    <rect id="長方形_61" data-name="長方形 61" width="1.857" height="1.857" rx="0.928" transform="matrix(0.996, 0.086, -0.086, 0.996, 648.521, 415.343)" fill="#fff"/>
  </g>
</svg>
