<svg xmlns="http://www.w3.org/2000/svg" width="36" height="36" viewBox="0 0 36 36">
  <g id="グループ化_24" data-name="グループ化 24" transform="translate(-167 -527)">
    <rect id="長方形_104" data-name="長方形 104" width="36" height="36" rx="8" transform="translate(167 527)" fill="#03b902"/>
    <g id="FULL_COLOR_ICON" data-name="FULL COLOR ICON" transform="translate(-95.913 296.36)">
      <g id="TYPE_A" data-name="TYPE A" transform="translate(268.913 237.64)">
        <g id="グループ化_20" data-name="グループ化 20" transform="translate(0 0)">
          <path id="パス_380" data-name="パス 380" d="M292.614,247.257c0-5.3-5.316-9.617-11.851-9.617s-11.851,4.314-11.851,9.617c0,4.754,4.216,8.735,9.911,9.488.386.083.911.254,1.044.584a2.434,2.434,0,0,1,.038,1.072s-.139.836-.169,1.014c-.052.3-.238,1.172,1.026.639a38.259,38.259,0,0,0,9.311-6.88h0a8.555,8.555,0,0,0,2.54-5.917" transform="translate(-268.913 -237.64)" fill="#fff"/>
          <g id="グループ化_19" data-name="グループ化 19" transform="translate(3.888 7.054)">
            <path id="パス_381" data-name="パス 381" d="M314.507,275.125h-.831a.231.231,0,0,0-.231.231v5.164a.231.231,0,0,0,.231.23h.831a.231.231,0,0,0,.231-.23v-5.164a.231.231,0,0,0-.231-.231" transform="translate(-308.952 -275.125)" fill="#00b900"/>
            <path id="パス_382" data-name="パス 382" d="M329.292,275.125h-.831a.231.231,0,0,0-.231.231v3.068l-2.366-3.2a.244.244,0,0,0-.018-.023h0l-.014-.014,0,0-.012-.01-.006,0-.012-.008-.007,0-.012-.007-.007,0-.013-.006-.008,0-.014,0-.008,0-.013,0h-.873a.231.231,0,0,0-.231.231v5.164a.231.231,0,0,0,.231.23h.831a.231.231,0,0,0,.231-.23v-3.067l2.369,3.2a.226.226,0,0,0,.059.057l0,0,.014.009.007,0,.011.005.011,0,.007,0,.016.005h0a.226.226,0,0,0,.059.008h.831a.231.231,0,0,0,.231-.23v-5.164a.231.231,0,0,0-.231-.231" transform="translate(-318.016 -275.125)" fill="#00b900"/>
            <path id="パス_383" data-name="パス 383" d="M293.122,279.457h-2.259v-4.1a.231.231,0,0,0-.231-.231H289.8a.231.231,0,0,0-.231.231v5.163h0a.229.229,0,0,0,.065.159l0,0,0,0a.229.229,0,0,0,.159.064h3.321a.231.231,0,0,0,.23-.231v-.831a.231.231,0,0,0-.23-.231" transform="translate(-289.57 -275.125)" fill="#00b900"/>
            <path id="パス_384" data-name="パス 384" d="M358.563,276.418a.231.231,0,0,0,.231-.231v-.831a.231.231,0,0,0-.231-.231h-3.321a.229.229,0,0,0-.16.065l0,0,0,0a.23.23,0,0,0-.064.159h0v5.163h0a.229.229,0,0,0,.065.159l0,0,0,0a.23.23,0,0,0,.159.064h3.321a.231.231,0,0,0,.231-.231v-.831a.231.231,0,0,0-.231-.231H356.3v-.873h2.259a.231.231,0,0,0,.231-.231v-.831a.231.231,0,0,0-.231-.231H356.3v-.873Z" transform="translate(-342.696 -275.125)" fill="#00b900"/>
          </g>
        </g>
      </g>
    </g>
  </g>
</svg>
