<svg xmlns="http://www.w3.org/2000/svg" width="36" height="36" viewBox="0 0 36 36">
  <g id="グループ化_25" data-name="グループ化 25" transform="translate(-56 -527)">
    <rect id="長方形_102" data-name="長方形 102" width="36" height="36" rx="8" transform="translate(56 527)" fill="#03aced"/>
    <path id="パス_121" data-name="パス 121" d="M82.179,117a13.236,13.236,0,0,0,13.327-13.327c0-.2,0-.4-.014-.605a9.53,9.53,0,0,0,2.337-2.424,9.349,9.349,0,0,1-2.69.737A4.7,4.7,0,0,0,97.2,98.79a9.386,9.386,0,0,1-2.974,1.137,4.688,4.688,0,0,0-7.982,4.272A13.3,13.3,0,0,1,76.589,99.3a4.687,4.687,0,0,0,1.45,6.253,4.649,4.649,0,0,1-2.126-.586v.059a4.686,4.686,0,0,0,3.758,4.591,4.676,4.676,0,0,1-2.115.08,4.689,4.689,0,0,0,4.376,3.253,9.4,9.4,0,0,1-5.817,2.009A9.535,9.535,0,0,1,75,114.9a13.26,13.26,0,0,0,7.179,2.1" transform="translate(-12.235 437.583)" fill="#fff"/>
  </g>
</svg>
